<svg xmlns="http://www.w3.org/2000/svg" width="46.131" height="46.131" viewBox="0 0 46.131 46.131">
  <path id="Icon_metro-copyright" data-name="Icon metro-copyright" d="M39.308,32.818v3.274a3.8,3.8,0,0,1-1.1,2.673,7.283,7.283,0,0,1-2.823,1.817,20.644,20.644,0,0,1-3.544.976,19.714,19.714,0,0,1-3.529.33A13.883,13.883,0,0,1,18.03,37.714,14.185,14.185,0,0,1,13.9,27.322,13.957,13.957,0,0,1,28.166,13.056a21.194,21.194,0,0,1,2.268.135,19.379,19.379,0,0,1,2.793.541A14.326,14.326,0,0,1,36,14.753a5.981,5.981,0,0,1,2.072,1.7,3.86,3.86,0,0,1,.841,2.433v3.274a.425.425,0,0,1-.481.481H34.893a.425.425,0,0,1-.481-.481v-2.1q0-1.291-1.967-2.027a11.69,11.69,0,0,0-4.129-.736,9.125,9.125,0,0,0-6.863,2.748A9.83,9.83,0,0,0,18.8,27.172a10.579,10.579,0,0,0,2.748,7.493,9.15,9.15,0,0,0,7.013,2.958A12.725,12.725,0,0,0,32.7,36.9q2.1-.721,2.1-1.982v-2.1a.468.468,0,0,1,.135-.345.432.432,0,0,1,.315-.135h3.574a.483.483,0,0,1,.33.135.444.444,0,0,1,.15.345ZM27.835,8.251a18.684,18.684,0,0,0-7.463,1.532A18.955,18.955,0,0,0,10.146,20.009a18.948,18.948,0,0,0,0,14.926A18.955,18.955,0,0,0,20.372,45.162a18.948,18.948,0,0,0,14.926,0A18.955,18.955,0,0,0,45.525,34.936a18.948,18.948,0,0,0,0-14.926A18.955,18.955,0,0,0,35.3,9.783a18.684,18.684,0,0,0-7.463-1.532ZM50.9,27.472A22.563,22.563,0,0,1,47.807,39.05a22.962,22.962,0,0,1-8.394,8.394,22.563,22.563,0,0,1-11.578,3.093,22.563,22.563,0,0,1-11.578-3.093A22.962,22.962,0,0,1,7.863,39.05,22.563,22.563,0,0,1,4.77,27.472,22.563,22.563,0,0,1,7.863,15.895,22.962,22.962,0,0,1,16.258,7.5,22.563,22.563,0,0,1,27.835,4.407,22.563,22.563,0,0,1,39.413,7.5a22.962,22.962,0,0,1,8.394,8.394A22.563,22.563,0,0,1,50.9,27.472Z" transform="translate(-4.77 -4.407)" fill="#fff"/>
</svg>
