<svg xmlns="http://www.w3.org/2000/svg" width="140.419" height="152.057" viewBox="0 0 140.419 152.057">
  <path id="Icon_simple-instagram" data-name="Icon simple-instagram" d="M70.209,0C51.136,0,48.754.1,41.265.456A48.331,48.331,0,0,0,24.222,3.991,34.236,34.236,0,0,0,11.783,12.76a37.543,37.543,0,0,0-8.1,13.47A59.966,59.966,0,0,0,.421,44.686C.07,52.8,0,55.374,0,76.028s.088,23.233.421,31.343a60.18,60.18,0,0,0,3.265,18.456,37.734,37.734,0,0,0,8.1,13.47,34.187,34.187,0,0,0,12.439,8.769A48.391,48.391,0,0,0,41.265,151.6c7.489.38,9.87.456,28.944.456s21.455-.1,28.944-.456a48.5,48.5,0,0,0,17.043-3.535,34.361,34.361,0,0,0,12.439-8.769,37.572,37.572,0,0,0,8.1-13.47A60.18,60.18,0,0,0,140,107.371c.351-8.11.421-10.688.421-31.343S140.331,52.8,140,44.686a60.319,60.319,0,0,0-3.265-18.456,37.764,37.764,0,0,0-8.1-13.47A34.063,34.063,0,0,0,116.2,3.991,48.22,48.22,0,0,0,99.153.456C91.664.076,89.283,0,70.209,0Zm0,13.685c18.74,0,20.975.1,28.376.45,6.845.348,10.561,1.578,13.03,2.629a21.716,21.716,0,0,1,8.086,5.677,23.766,23.766,0,0,1,5.242,8.75c.96,2.674,2.106,6.7,2.416,14.11.333,8.021.41,10.429.41,30.728s-.088,22.713-.433,30.728c-.357,7.413-1.5,11.436-2.463,14.11a24.421,24.421,0,0,1-5.26,8.756,21.816,21.816,0,0,1-8.074,5.677c-2.457,1.039-6.231,2.281-13.076,2.617-7.454.361-9.648.443-28.429.443s-20.981-.1-28.429-.469c-6.851-.386-10.625-1.622-13.082-2.667a21.666,21.666,0,0,1-8.068-5.7,23.348,23.348,0,0,1-5.266-8.743c-.965-2.661-2.1-6.748-2.457-14.16-.263-7.983-.357-10.448-.357-30.69s.094-22.72.357-30.8c.357-7.413,1.492-11.493,2.457-14.154a22.792,22.792,0,0,1,5.266-8.75,20.692,20.692,0,0,1,8.068-5.689c2.457-1.052,6.149-2.287,12.995-2.667,7.46-.285,9.654-.38,28.429-.38l.263.19Zm0,23.3c-19.922,0-36.052,17.487-36.052,39.041,0,21.573,16.148,39.041,36.052,39.041,19.922,0,36.052-17.487,36.052-39.041C106.262,54.455,90.114,36.988,70.209,36.988Zm0,64.383c-12.93,0-23.4-11.341-23.4-25.343s10.473-25.343,23.4-25.343,23.4,11.341,23.4,25.343S83.139,101.371,70.209,101.371Zm45.905-65.923c0,5.037-3.78,9.123-8.425,9.123s-8.425-4.093-8.425-9.123,3.78-9.117,8.425-9.117S116.114,30.418,116.114,35.448Z"/>
</svg>
