<svg xmlns="http://www.w3.org/2000/svg" width="162.141" height="185.304" viewBox="0 0 162.141 185.304">
  <path id="Icon_awesome-podcast" data-name="Icon awesome-podcast" d="M96.788,176.822C94.927,183.7,87.9,185.3,81.071,185.3s-13.857-1.6-15.718-8.482c-2.767-10.289-7.445-36.071-7.445-48.068,0-12.724,11.271-15.834,23.163-15.834s23.163,3.11,23.163,15.834C104.234,140.679,99.575,166.458,96.788,176.822ZM56.774,104.434a34.745,34.745,0,1,1,48.594,0,2.177,2.177,0,0,0,.227,3.325,24.078,24.078,0,0,1,7.685,9.179,2.158,2.158,0,0,0,3.42.684,52.117,52.117,0,1,0-71.261,0,2.158,2.158,0,0,0,3.421-.683,24.077,24.077,0,0,1,7.685-9.179,2.176,2.176,0,0,0,.228-3.324ZM81.071,0A81.1,81.1,0,0,0,45.508,153.965a2.17,2.17,0,0,0,3.089-2.284c-.862-5.614-1.571-11.2-1.957-16.047A2.181,2.181,0,0,0,45.671,134a63.7,63.7,0,1,1,69.909.586c-.362,5.08-1.111,11.07-2.035,17.094a2.17,2.17,0,0,0,3.089,2.284A81.095,81.095,0,0,0,81.071,0Zm0,57.908a23.163,23.163,0,1,0,23.163,23.163A23.163,23.163,0,0,0,81.071,57.908Z"/>
</svg>
