<svg xmlns="http://www.w3.org/2000/svg" width="166.87" height="117.33" viewBox="0 0 166.87 117.33">
  <path id="Icon_awesome-youtube" data-name="Icon awesome-youtube" d="M164.433,22.858A20.967,20.967,0,0,0,149.68,8.01c-13.013-3.51-65.2-3.51-65.2-3.51S32.3,4.5,19.29,8.01A20.968,20.968,0,0,0,4.537,22.858C1.05,35.956,1.05,63.284,1.05,63.284s0,27.328,3.487,40.426A20.655,20.655,0,0,0,19.29,118.321c13.014,3.51,65.2,3.51,65.2,3.51s52.181,0,65.2-3.51a20.655,20.655,0,0,0,14.753-14.612c3.487-13.1,3.487-40.425,3.487-40.425s0-27.328-3.487-40.425ZM67.419,88.1V38.472l43.614,24.812L67.419,88.1Z" transform="translate(-1.05 -4.5)"/>
</svg>
